<svg width="181" height="39" viewBox="0 0 181 39" fill="none" xmlns="http://www.w3.org/2000/svg">
<path d="M63.6 26C63.4267 26 63.28 25.9467 63.16 25.84C63.0533 25.72 63 25.5733 63 25.4V10.98C63 10.8067 63.0533 10.6667 63.16 10.56C63.28 10.44 63.4267 10.38 63.6 10.38C63.7867 10.38 63.94 10.4467 64.06 10.58L74.22 23.8V10.98C74.22 10.8067 74.2733 10.6667 74.38 10.56C74.5 10.44 74.6467 10.38 74.82 10.38C74.98 10.38 75.12 10.44 75.24 10.56C75.36 10.6667 75.42 10.8067 75.42 10.98V25.4C75.42 25.5733 75.36 25.72 75.24 25.84C75.12 25.9467 74.98 26 74.82 26C74.6333 26 74.4867 25.94 74.38 25.82L64.2 12.58V25.4C64.2 25.5733 64.14 25.72 64.02 25.84C63.9133 25.9467 63.7733 26 63.6 26ZM84.0658 26.1C83.0124 26.1 82.0724 25.8667 81.2458 25.4C80.4324 24.92 79.7924 24.26 79.3258 23.42C78.8591 22.58 78.6258 21.62 78.6258 20.54C78.6258 19.4467 78.8458 18.4867 79.2858 17.66C79.7258 16.82 80.3324 16.16 81.1058 15.68C81.8791 15.2 82.7658 14.96 83.7658 14.96C84.7524 14.96 85.6258 15.1933 86.3858 15.66C87.1458 16.1133 87.7391 16.7467 88.1658 17.56C88.5924 18.36 88.8058 19.2867 88.8058 20.34C88.8058 20.5133 88.7524 20.6533 88.6458 20.76C88.5391 20.8533 88.3991 20.9 88.2258 20.9H79.8458C79.8858 21.7 80.0924 22.4067 80.4658 23.02C80.8391 23.6333 81.3324 24.1133 81.9458 24.46C82.5724 24.8067 83.2791 24.98 84.0658 24.98C84.5858 24.98 85.1058 24.8933 85.6258 24.72C86.1591 24.5333 86.5791 24.2933 86.8858 24C86.9924 23.8933 87.1191 23.84 87.2658 23.84C87.4258 23.8267 87.5591 23.8667 87.6658 23.96C87.8124 24.08 87.8858 24.2133 87.8858 24.36C87.8991 24.5067 87.8391 24.64 87.7058 24.76C87.2791 25.1467 86.7191 25.4667 86.0258 25.72C85.3458 25.9733 84.6924 26.1 84.0658 26.1ZM83.7658 16.08C83.0724 16.08 82.4458 16.24 81.8858 16.56C81.3258 16.88 80.8658 17.3267 80.5058 17.9C80.1591 18.46 79.9458 19.1133 79.8658 19.86H87.6458C87.5524 18.74 87.1524 17.8333 86.4458 17.14C85.7391 16.4333 84.8458 16.08 83.7658 16.08ZM90.3078 26C90.0545 26 89.8745 25.8867 89.7678 25.66C89.6611 25.4333 89.6878 25.22 89.8478 25.02L93.5678 20.4L90.2878 16.06C90.1278 15.86 90.1011 15.6467 90.2078 15.42C90.3145 15.18 90.4945 15.06 90.7478 15.06C90.9211 15.06 91.0678 15.12 91.1878 15.24L94.3878 19.5L97.7278 15.42C97.9278 15.18 98.1345 15.06 98.3478 15.06C98.6145 15.06 98.7878 15.18 98.8678 15.42C98.9478 15.6467 98.9078 15.86 98.7478 16.06L95.2078 20.28L98.7678 25.02C98.9411 25.2333 99.0011 25.4133 98.9478 25.56C98.9078 25.7067 98.8278 25.82 98.7078 25.9C98.5878 25.9667 98.4878 26 98.4078 26C98.2478 26 98.1211 25.9733 98.0278 25.92C97.9345 25.8533 97.8345 25.7533 97.7278 25.62L94.3678 21.16L90.7278 25.82C90.6478 25.94 90.5078 26 90.3078 26ZM106.128 26C105.394 25.9867 104.741 25.82 104.168 25.5C103.594 25.1667 103.148 24.7133 102.828 24.14C102.508 23.5533 102.348 22.8933 102.348 22.16V16.54H100.788C100.628 16.54 100.494 16.4933 100.388 16.4C100.294 16.2933 100.248 16.16 100.248 16C100.248 15.84 100.294 15.7133 100.388 15.62C100.494 15.5133 100.628 15.46 100.788 15.46H102.348V12.2C102.348 12.0133 102.401 11.8667 102.508 11.76C102.628 11.64 102.774 11.58 102.948 11.58C103.134 11.58 103.281 11.64 103.388 11.76C103.508 11.8667 103.568 12.0133 103.568 12.2V15.46H106.208C106.368 15.46 106.494 15.5133 106.588 15.62C106.694 15.7133 106.748 15.84 106.748 16C106.748 16.16 106.694 16.2933 106.588 16.4C106.494 16.4933 106.368 16.54 106.208 16.54H103.568V22.16C103.568 22.9333 103.808 23.5667 104.288 24.06C104.768 24.54 105.388 24.78 106.148 24.78H106.588C106.774 24.78 106.921 24.84 107.028 24.96C107.148 25.0667 107.208 25.2133 107.208 25.4C107.208 25.5733 107.148 25.72 107.028 25.84C106.921 25.9467 106.774 26 106.588 26H106.128ZM110.954 26C110.661 26 110.414 25.9 110.214 25.7C110.014 25.5 109.914 25.2533 109.914 24.96V11.42C109.914 11.1133 110.014 10.8667 110.214 10.68C110.414 10.48 110.661 10.38 110.954 10.38C111.354 10.38 111.661 10.5667 111.874 10.94L117.814 22.84L123.594 10.94C123.807 10.5667 124.114 10.38 124.514 10.38C124.807 10.38 125.054 10.48 125.254 10.68C125.454 10.8667 125.554 11.1133 125.554 11.42V24.96C125.554 25.2533 125.447 25.5 125.234 25.7C125.034 25.9 124.794 26 124.514 26C124.221 26 123.974 25.9 123.774 25.7C123.574 25.5 123.474 25.2533 123.474 24.96V15.02L118.634 24.88C118.407 25.2267 118.107 25.4 117.734 25.4C117.294 25.4 116.974 25.1933 116.774 24.78L111.994 15.2V24.96C111.994 25.2533 111.894 25.5 111.694 25.7C111.494 25.9 111.247 26 110.954 26ZM134.323 26.08C133.243 26.08 132.289 25.8467 131.463 25.38C130.636 24.9 129.983 24.2467 129.503 23.42C129.036 22.58 128.803 21.62 128.803 20.54C128.803 19.4467 129.036 18.4867 129.503 17.66C129.983 16.82 130.636 16.1667 131.463 15.7C132.289 15.22 133.243 14.98 134.323 14.98C135.389 14.98 136.336 15.22 137.163 15.7C137.989 16.1667 138.636 16.82 139.103 17.66C139.583 18.4867 139.823 19.4467 139.823 20.54C139.823 21.62 139.589 22.58 139.123 23.42C138.656 24.2467 138.009 24.9 137.183 25.38C136.356 25.8467 135.403 26.08 134.323 26.08ZM134.323 24.28C135.016 24.28 135.629 24.12 136.163 23.8C136.696 23.48 137.109 23.04 137.403 22.48C137.709 21.92 137.863 21.2733 137.863 20.54C137.863 19.8067 137.709 19.16 137.403 18.6C137.109 18.0267 136.696 17.58 136.163 17.26C135.629 16.94 135.016 16.78 134.323 16.78C133.629 16.78 133.016 16.94 132.483 17.26C131.949 17.58 131.529 18.0267 131.223 18.6C130.916 19.16 130.763 19.8067 130.763 20.54C130.763 21.2733 130.916 21.92 131.223 22.48C131.529 23.04 131.949 23.48 132.483 23.8C133.016 24.12 133.629 24.28 134.323 24.28ZM145.953 25.98C145.54 25.98 145.22 25.76 144.993 25.32L140.753 16.38C140.646 16.1533 140.633 15.9333 140.713 15.72C140.806 15.4933 140.98 15.32 141.233 15.2C141.46 15.08 141.686 15.06 141.913 15.14C142.153 15.22 142.333 15.3733 142.453 15.6L145.933 23.1L149.373 15.6C149.493 15.3733 149.673 15.22 149.913 15.14C150.166 15.06 150.42 15.08 150.673 15.2C150.913 15.3067 151.073 15.4733 151.153 15.7C151.233 15.9267 151.22 16.1533 151.113 16.38L146.873 25.32C146.673 25.76 146.366 25.98 145.953 25.98ZM154.43 26C154.137 26 153.89 25.9067 153.69 25.72C153.503 25.52 153.41 25.2733 153.41 24.98V16.08C153.41 15.7733 153.503 15.5267 153.69 15.34C153.89 15.1533 154.137 15.06 154.43 15.06C154.737 15.06 154.983 15.1533 155.17 15.34C155.357 15.5267 155.45 15.7733 155.45 16.08V24.98C155.45 25.2733 155.357 25.52 155.17 25.72C154.983 25.9067 154.737 26 154.43 26ZM154.43 13.28C154.07 13.28 153.757 13.1533 153.49 12.9C153.237 12.6333 153.11 12.32 153.11 11.96C153.11 11.6 153.237 11.2933 153.49 11.04C153.757 10.7733 154.07 10.64 154.43 10.64C154.79 10.64 155.097 10.7733 155.35 11.04C155.617 11.2933 155.75 11.6 155.75 11.96C155.75 12.32 155.617 12.6333 155.35 12.9C155.097 13.1533 154.79 13.28 154.43 13.28ZM164.385 26.08C163.279 26.08 162.292 25.8467 161.425 25.38C160.572 24.9 159.899 24.2467 159.405 23.42C158.925 22.58 158.685 21.62 158.685 20.54C158.685 19.4467 158.912 18.4867 159.365 17.66C159.832 16.82 160.472 16.1667 161.285 15.7C162.099 15.22 163.032 14.98 164.085 14.98C165.125 14.98 166.019 15.2133 166.765 15.68C167.512 16.1333 168.079 16.7667 168.465 17.58C168.865 18.38 169.065 19.3067 169.065 20.36C169.065 20.6133 168.979 20.8267 168.805 21C168.632 21.16 168.412 21.24 168.145 21.24H160.545C160.692 22.16 161.112 22.9133 161.805 23.5C162.512 24.0733 163.372 24.36 164.385 24.36C164.799 24.36 165.219 24.2867 165.645 24.14C166.085 23.98 166.439 23.8 166.705 23.6C166.905 23.4533 167.119 23.38 167.345 23.38C167.585 23.3667 167.792 23.4333 167.965 23.58C168.192 23.78 168.312 24 168.325 24.24C168.339 24.48 168.232 24.6867 168.005 24.86C167.552 25.22 166.985 25.5133 166.305 25.74C165.639 25.9667 164.999 26.08 164.385 26.08ZM164.085 16.7C163.099 16.7 162.305 16.9733 161.705 17.52C161.105 18.0667 160.725 18.7733 160.565 19.64H167.225C167.105 18.7867 166.779 18.0867 166.245 17.54C165.712 16.98 164.992 16.7 164.085 16.7ZM175.647 26.08C174.714 26.08 173.847 25.94 173.047 25.66C172.261 25.3667 171.647 25 171.207 24.56C171.007 24.3467 170.921 24.1067 170.947 23.84C170.987 23.56 171.121 23.3333 171.347 23.16C171.614 22.9467 171.874 22.86 172.127 22.9C172.394 22.9267 172.621 23.04 172.807 23.24C173.034 23.4933 173.394 23.7333 173.887 23.96C174.394 24.1733 174.954 24.28 175.567 24.28C176.341 24.28 176.927 24.1533 177.327 23.9C177.741 23.6467 177.954 23.32 177.967 22.92C177.981 22.52 177.787 22.1733 177.387 21.88C177.001 21.5867 176.287 21.3467 175.247 21.16C173.901 20.8933 172.921 20.4933 172.307 19.96C171.707 19.4267 171.407 18.7733 171.407 18C171.407 17.32 171.607 16.76 172.007 16.32C172.407 15.8667 172.921 15.5333 173.547 15.32C174.174 15.0933 174.827 14.98 175.507 14.98C176.387 14.98 177.167 15.12 177.847 15.4C178.527 15.68 179.067 16.0667 179.467 16.56C179.654 16.7733 179.741 17 179.727 17.24C179.714 17.4667 179.601 17.66 179.387 17.82C179.174 17.9667 178.921 18.0133 178.627 17.96C178.334 17.9067 178.087 17.7867 177.887 17.6C177.554 17.28 177.194 17.06 176.807 16.94C176.421 16.82 175.974 16.76 175.467 16.76C174.881 16.76 174.381 16.86 173.967 17.06C173.567 17.26 173.367 17.5533 173.367 17.94C173.367 18.18 173.427 18.4 173.547 18.6C173.681 18.7867 173.934 18.96 174.307 19.12C174.681 19.2667 175.227 19.4133 175.947 19.56C177.454 19.8533 178.494 20.2733 179.067 20.82C179.654 21.3533 179.947 22.0133 179.947 22.8C179.947 23.4133 179.781 23.9667 179.447 24.46C179.127 24.9533 178.647 25.3467 178.007 25.64C177.381 25.9333 176.594 26.08 175.647 26.08Z" fill="#2F2F2F"/>
<path d="M16.5178 4.5C17.6725 2.5 20.5592 2.5 21.7139 4.5L33.0726 24.1738C34.2273 26.1738 32.7839 28.6738 30.4745 28.6738H7.75719C5.44779 28.6738 4.00441 26.1738 5.15911 24.1738L16.5178 4.5Z" fill="#FA5302"/>
<path d="M33.286 4.5C34.4407 2.5 37.3275 2.5 38.4822 4.5L49.8408 24.1738C50.9955 26.1738 49.5522 28.6738 47.2428 28.6738H24.5254C22.216 28.6738 20.7727 26.1738 21.9274 24.1738L33.286 4.5Z" fill="#91204D"/>
<mask id="mask0" mask-type="alpha" maskUnits="userSpaceOnUse" x="21" y="3" width="30" height="26">
<path d="M33.286 4.5C34.4407 2.5 37.3275 2.5 38.4822 4.5L49.8408 24.1738C50.9955 26.1738 49.5522 28.6738 47.2428 28.6738H24.5254C22.216 28.6738 20.7727 26.1738 21.9274 24.1738L33.286 4.5Z" fill="#FA5302"/>
</mask>
<g mask="url(#mask0)">
<path d="M35.8842 29.5122V2.68293V0L52.9878 29.5122H35.8842Z" fill="black" fillOpacity="0.15"/>
</g>
<mask id="mask1" mask-type="alpha" maskUnits="userSpaceOnUse" x="4" y="3" width="32" height="26">
<path d="M16.5178 4.5C17.6725 2.5 20.5592 2.5 21.7139 4.5L35.6707 28.6738H7.75719C5.44779 28.6738 4.00441 26.1738 5.15911 24.1738L16.5178 4.5Z" fill="#FA5302"/>
</mask>
<g mask="url(#mask1)">
<line x1="17.5828" y1="-0.594786" x2="35.6926" y2="30.2589" stroke="black" strokeOpacity="0.15" stroke-width="5"/>
</g>
</svg>
